<svg width="65" height="64" viewBox="0 0 65 64" fill="none" xmlns="http://www.w3.org/2000/svg">
<path d="M10.8841 14.9849C-2.33001 28.1997 19.9673 44.7427 30.239 54.0765C31.4236 55.153 33.2534 55.153 34.4381 54.0765C44.7098 44.7427 67.0086 28.1986 53.7929 14.9848C48.3745 9.56604 39.589 9.56604 34.1706 14.9848L33.0217 16.1332C32.6444 16.5105 32.0327 16.5104 31.6555 16.133L30.5076 14.9849C25.0892 9.56604 16.3037 9.56604 10.8841 14.9849Z" fill="url(#paint0_linear_2_529)"/>
<path d="M30.4766 26.0438C31.459 26.9489 33.1656 27.1816 34.6395 26.0438" stroke="#2E2A42" stroke-width="2" stroke-linecap="round"/>
<path d="M28.4531 22.5016C27.4707 23.4067 25.7641 23.6394 24.2902 22.5016" stroke="#2E2A42" stroke-width="2" stroke-linecap="round"/>
<path d="M40.3877 22.5016C39.4053 23.4067 37.6987 23.6394 36.2248 22.5016" stroke="#2E2A42" stroke-width="2" stroke-linecap="round"/>
<path d="M44.3462 14.7044C48.4611 14.7044 52.7301 17.25 54.2029 22.5016" stroke="white" stroke-width="2" stroke-linecap="round"/>
<path d="M27.6448 35.119C11.9488 31.7794 8.47006 23.0686 7.69082 19.5899C4.60171 25.4342 7.32874 32.2453 11.5314 36.7052C15.6224 41.0467 21.1326 42.466 24.8062 41.5476C29.4577 40.3848 30.3292 35.6901 27.6448 35.119Z" fill="url(#paint1_linear_2_529)"/>
<path d="M37.0415 35.142C52.7375 31.8024 56.2162 23.0917 56.9955 19.6129C60.0846 25.4572 57.3575 32.2684 53.1549 36.7283C49.0639 41.0697 43.5536 42.4891 39.8801 41.5707C35.2286 40.4078 34.3571 35.7131 37.0415 35.142Z" fill="url(#paint2_linear_2_529)"/>
<path d="M10.4228 3.38798C10.3637 2.8028 9.51097 2.8028 9.45187 3.38798L9.40119 3.88968C9.27731 5.11624 8.35235 6.11051 7.13793 6.32255C6.70418 6.39829 6.70418 7.02089 7.13793 7.09662C8.35235 7.30867 9.27731 8.30294 9.40119 9.52949L9.45187 10.0312C9.51097 10.6164 10.3637 10.6164 10.4228 10.0312L10.4734 9.52949C10.5973 8.30294 11.5223 7.30867 12.7367 7.09662C13.1704 7.02089 13.1704 6.39829 12.7367 6.32255C11.5223 6.11051 10.5973 5.11624 10.4734 3.88968L10.4228 3.38798Z" fill="url(#paint3_linear_2_529)"/>
<path d="M53.1526 47.1593C53.0507 46.1504 51.5805 46.1504 51.4786 47.1593L51.3912 48.0244C51.1776 50.1391 49.5829 51.8534 47.489 52.219C46.7411 52.3496 46.7411 53.4231 47.489 53.5537C49.5829 53.9193 51.1776 55.6336 51.3912 57.7483L51.4786 58.6134C51.5805 59.6223 53.0507 59.6223 53.1526 58.6134L53.24 57.7483C53.4536 55.6336 55.0484 53.9193 57.1422 53.5537C57.8901 53.4231 57.8901 52.3496 57.1422 52.219C55.0484 51.8534 53.4536 50.1391 53.24 48.0244L53.1526 47.1593Z" fill="url(#paint4_linear_2_529)"/>
<defs>
<linearGradient id="paint0_linear_2_529" x1="29.4005" y1="16.2597" x2="49.1518" y2="50.8244" gradientUnits="userSpaceOnUse">
<stop stop-color="#FF93AB"/>
<stop offset="1" stop-color="#F76453"/>
</linearGradient>
<linearGradient id="paint1_linear_2_529" x1="10.8071" y1="27.2566" x2="84.0968" y2="41.1628" gradientUnits="userSpaceOnUse">
<stop stop-color="#FADFD2"/>
<stop offset="1" stop-color="#F5A38A"/>
</linearGradient>
<linearGradient id="paint2_linear_2_529" x1="53.8791" y1="27.2796" x2="-19.4105" y2="41.1858" gradientUnits="userSpaceOnUse">
<stop stop-color="#FADFD2"/>
<stop offset="1" stop-color="#F5A38A"/>
</linearGradient>
<linearGradient id="paint3_linear_2_529" x1="7.18684" y1="7.43213" x2="10.8275" y2="5.85897" gradientUnits="userSpaceOnUse">
<stop stop-color="#FFE079"/>
<stop offset="0.863066" stop-color="#FEB85A"/>
</linearGradient>
<linearGradient id="paint4_linear_2_529" x1="47.5733" y1="54.1321" x2="53.8505" y2="51.4197" gradientUnits="userSpaceOnUse">
<stop stop-color="#FFE079"/>
<stop offset="0.863066" stop-color="#FEB85A"/>
</linearGradient>
</defs>
</svg>
