<svg width="120" height="134" viewBox="0 0 120 134" fill="none" xmlns="http://www.w3.org/2000/svg">
<path d="M38.2386 58.2718C38.2386 57.0868 39.1992 56.1262 40.3842 56.1262H85.4024C86.5874 56.1262 87.548 57.0868 87.548 58.2718V131.526C87.548 133.116 85.8784 134.154 84.4525 133.45L63.8432 123.274C63.2445 122.978 62.5422 122.978 61.9434 123.274L41.3341 133.45C39.9082 134.154 38.2386 133.116 38.2386 131.526V58.2718Z" fill="url(#paint0_linear_733_3631)"/>
<path d="M59.8017 3.20817C61.4894 1.45633 64.2945 1.45633 65.9822 3.20817L71.179 8.60215C72.2824 9.74743 73.9287 10.1886 75.4569 9.74842L82.6544 7.67547C84.992 7.00222 87.4212 8.40473 88.007 10.7658L89.8105 18.0355C90.1934 19.579 91.3986 20.7842 92.9421 21.1671L100.212 22.9706C102.573 23.5564 103.975 25.9856 103.302 28.3232L101.229 35.5207C100.789 37.0489 101.23 38.6952 102.375 39.7986L107.769 44.9954C109.521 46.6831 109.521 49.4882 107.769 51.1759L102.375 56.3727C101.23 57.4761 100.789 59.1224 101.229 60.6506L103.302 67.8481C103.975 70.1857 102.573 72.6149 100.212 73.2007L92.9421 75.0042C91.3986 75.3871 90.1934 76.5923 89.8105 78.1358L88.007 85.4055C87.4212 87.7666 84.992 89.1691 82.6544 88.4958L75.4569 86.4229C73.9287 85.9827 72.2824 86.4239 71.179 87.5691L65.9822 92.9631C64.2945 94.715 61.4894 94.715 59.8017 92.9631L54.6049 87.5691C53.5015 86.4239 51.8552 85.9827 50.327 86.4229L43.1295 88.4958C40.7919 89.1691 38.3627 87.7666 37.7769 85.4055L35.9734 78.1358C35.5905 76.5923 34.3853 75.3871 32.8418 75.0042L25.5721 73.2007C23.211 72.6149 21.8085 70.1857 22.4818 67.8481L24.5547 60.6506C24.9949 59.1224 24.5537 57.4761 23.4084 56.3727L18.0145 51.1759C16.2626 49.4882 16.2626 46.6831 18.0145 44.9954L23.4084 39.7986C24.5537 38.6952 24.9949 37.0489 24.5547 35.5207L22.4818 28.3232C21.8085 25.9856 23.211 23.5564 25.5721 22.9706L32.8418 21.1671C34.3853 20.7842 35.5905 19.579 35.9734 18.0355L37.7769 10.7658C38.3627 8.40473 40.7919 7.00222 43.1295 7.67547L50.327 9.74842C51.8552 10.1886 53.5015 9.74743 54.6049 8.60215L59.8017 3.20817Z" fill="url(#paint1_linear_733_3631)"/>
<path d="M93.6508 48.0848C93.6508 65.0729 79.8792 78.8444 62.8912 78.8444C45.9031 78.8444 32.1316 65.0729 32.1316 48.0848C32.1316 31.0967 45.9031 17.3252 62.8912 17.3252C79.8792 17.3252 93.6508 31.0967 93.6508 48.0848Z" fill="url(#paint2_linear_733_3631)"/>
<path fill-rule="evenodd" clip-rule="evenodd" d="M69.2346 22.7767C69.6078 21.652 70.822 21.0427 71.9467 21.4159C77.5549 23.2766 81.9129 27.1858 84.4604 32.0312C85.0118 33.0801 84.6086 34.3774 83.5597 34.9288C82.5108 35.4802 81.2136 35.077 80.6621 34.0281C78.6104 30.1255 75.1086 26.9861 70.5954 25.4887C69.4707 25.1156 68.8615 23.9014 69.2346 22.7767ZM83.9323 35.9491C85.0901 35.6967 86.2333 36.4306 86.4857 37.5884C86.6913 38.5311 86.8354 39.4909 86.915 40.4616C87.0118 41.6426 86.1329 42.6785 84.9519 42.7753C83.7709 42.8722 82.735 41.9933 82.6381 40.8122C82.5742 40.0324 82.4584 39.2609 82.2931 38.5025C82.0406 37.3448 82.7745 36.2016 83.9323 35.9491Z" fill="#FCFBF7"/>
<path d="M18.7576 1.23177C18.5917 -0.410592 16.1986 -0.41059 16.0327 1.23177L15.8905 2.63984C15.5428 6.08228 12.9468 8.87279 9.53845 9.46791C8.32109 9.68046 8.32109 11.4278 9.53845 11.6404C12.9468 12.2355 15.5428 15.026 15.8905 18.4685L16.0327 19.8765C16.1986 21.5189 18.5917 21.5189 18.7576 19.8765L18.8998 18.4685C19.2475 15.026 21.8435 12.2355 25.2519 11.6404C26.4693 11.4278 26.4693 9.68046 25.2519 9.46791C21.8435 8.87279 19.2475 6.08228 18.8998 2.63984L18.7576 1.23177Z" fill="url(#paint3_linear_733_3631)"/>
<path d="M6.19899 18.6908C6.0975 17.6859 4.63336 17.6859 4.53187 18.6908L4.44485 19.5522C4.23213 21.6583 2.64389 23.3656 0.558595 23.7297C-0.186199 23.8598 -0.186199 24.9288 0.558595 25.0589C2.64389 25.423 4.23213 27.1302 4.44485 29.2364L4.53187 30.0978C4.63336 31.1026 6.0975 31.1026 6.19899 30.0978L6.28601 29.2364C6.49873 27.1302 8.08697 25.423 10.1723 25.0589C10.9171 24.9288 10.9171 23.8598 10.1723 23.7297C8.08697 23.3656 6.49873 21.6583 6.28601 19.5522L6.19899 18.6908Z" fill="url(#paint4_linear_733_3631)"/>
<path d="M112.379 116.621C112.208 118.311 109.746 118.311 109.575 116.621L109.429 115.172C109.071 111.63 106.4 108.759 102.893 108.147C101.641 107.928 101.641 106.13 102.893 105.912C106.4 105.299 109.071 102.428 109.429 98.8864L109.575 97.4377C109.746 95.7479 112.208 95.7479 112.379 97.4377L112.525 98.8864C112.883 102.428 115.554 105.299 119.061 105.912C120.313 106.13 120.313 107.928 119.061 108.147C115.554 108.759 112.883 111.63 112.525 115.172L112.379 116.621Z" fill="url(#paint5_linear_733_3631)"/>
<defs>
<linearGradient id="paint0_linear_733_3631" x1="87.548" y1="125.398" x2="30.8682" y2="98.9945" gradientUnits="userSpaceOnUse">
<stop stop-color="#FF93AB"/>
<stop offset="1" stop-color="#F76453"/>
</linearGradient>
<linearGradient id="paint1_linear_733_3631" x1="65.4774" y1="92.4733" x2="59.7916" y2="6.69031" gradientUnits="userSpaceOnUse">
<stop stop-color="#FFDF78"/>
<stop offset="0.890977" stop-color="#FDB154"/>
</linearGradient>
<linearGradient id="paint2_linear_733_3631" x1="76.4079" y1="42.7212" x2="51.7414" y2="70.1117" gradientUnits="userSpaceOnUse">
<stop stop-color="#FFDF78"/>
<stop offset="0.945335" stop-color="#FDB154"/>
</linearGradient>
<linearGradient id="paint3_linear_733_3631" x1="8.34408" y1="22.5216" x2="29.4772" y2="6.19505" gradientUnits="userSpaceOnUse">
<stop offset="0.400572" stop-color="#FF93AB"/>
<stop offset="1" stop-color="#FDB154"/>
</linearGradient>
<linearGradient id="paint4_linear_733_3631" x1="8.34408" y1="22.5216" x2="29.4772" y2="6.19505" gradientUnits="userSpaceOnUse">
<stop offset="0.400572" stop-color="#FF93AB"/>
<stop offset="1" stop-color="#FDB154"/>
</linearGradient>
<linearGradient id="paint5_linear_733_3631" x1="118.805" y1="112.087" x2="103.897" y2="93.5757" gradientUnits="userSpaceOnUse">
<stop stop-color="#74A551"/>
<stop offset="1" stop-color="#D2F2D2"/>
</linearGradient>
</defs>
</svg>
