<svg width="84" height="84" viewBox="0 0 84 84" fill="none" xmlns="http://www.w3.org/2000/svg">
<path d="M19.9863 33.0086L48.9763 32.0813L64.3381 52.1923L70.7088 61.2516C71.4777 62.3449 70.7851 63.8615 69.4554 63.9963L67.3064 64.2143L67.7518 67.8506L71.2023 72.8517C71.9518 73.938 71.2735 75.4312 69.9623 75.5812L34.3977 79.6526C31.0386 80.0372 27.8088 78.2346 26.3727 75.1736L12.397 45.3851C11.8551 44.2301 11.5742 42.9699 11.5742 41.694C11.5742 37.0029 15.2976 33.1585 19.9863 33.0086Z" fill="url(#paint0_linear_393_3070)"/>
<path d="M68.3663 72.9745V64.1426L34.2444 67.6918C31.9291 67.9327 30.1699 69.8842 30.1699 72.2122C30.1699 74.9248 32.5308 77.0333 35.2262 76.728L68.3663 72.9745Z" fill="url(#paint1_linear_393_3070)"/>
<path fill-rule="evenodd" clip-rule="evenodd" d="M24.3048 50.7008C23.6729 51.0557 23.4482 51.8558 23.8031 52.4879L31.3141 65.8634C31.669 66.4955 32.4691 66.7201 33.1011 66.3652C33.7332 66.0103 33.9577 65.2102 33.6028 64.5781L26.0919 51.2025C25.737 50.5706 24.9369 50.3459 24.3048 50.7008Z" fill="#2E2A42"/>
<path d="M17.4216 56.693L12.6992 22.231L58.06 31.4678L65.9343 47.5584C66.4613 48.635 65.7727 49.9107 64.5835 50.0611L60.4768 50.5803L65.5131 58.6871C66.2137 59.8149 65.4508 61.2815 64.1249 61.355L25.6595 63.4869C21.563 63.7138 17.9786 60.7578 17.4216 56.693Z" fill="url(#paint2_linear_393_3070)"/>
<path d="M61.2509 59.0266L60.5132 50.5811L24.9756 52.4216C22.5959 52.5448 20.7654 54.5718 20.8844 56.9518C21.0041 59.3455 23.0498 61.1843 25.4427 61.0492L61.2509 59.0266Z" fill="url(#paint3_linear_393_3070)"/>
<path fill-rule="evenodd" clip-rule="evenodd" d="M22.2115 29.8504C21.4924 29.9413 20.9831 30.5981 21.074 31.3172L23.2181 48.2722C23.309 48.9913 23.9658 49.5006 24.6849 49.4096C25.404 49.3188 25.9133 48.662 25.8223 47.9429L23.6782 30.9879C23.5874 30.2688 22.9306 29.7594 22.2115 29.8504Z" fill="#2E2A42"/>
<path d="M71.6853 35.2862L70.0633 34.2699V36.1842L41.9883 43.4762L38.16 42.7471L36.4281 40.4682L37.1573 36.6399L71.7396 27.4637C73.145 27.0908 73.5073 25.265 72.3508 24.3836L46.0524 4.34331C45.1421 3.64963 43.975 3.38634 42.855 3.622L15.3777 9.40393C11.9609 10.1229 9.41908 12.9964 9.1224 16.4754C8.92417 18.8001 9.76185 21.0938 11.4116 22.7435L33.0074 44.3393C34.7353 46.0672 37.2398 46.7677 39.6134 46.1869L71.1726 38.4656C72.6737 38.0982 72.9949 36.1066 71.6853 35.2862Z" fill="url(#paint4_linear_393_3070)"/>
<path fill-rule="evenodd" clip-rule="evenodd" d="M13.8616 12.26C13.3637 12.7868 13.387 13.6175 13.9139 14.1155L34.3844 33.4652C34.9112 33.9631 35.7419 33.9398 36.2399 33.4129C36.7379 32.8862 36.7145 32.0555 36.1877 31.5576L15.717 12.2078C15.1903 11.7099 14.3595 11.7333 13.8616 12.26Z" fill="#2E2A42"/>
<path d="M70.5238 36.4557V27.7983L38.802 35.7071C37.0173 36.152 35.7313 37.709 35.6314 39.5457C35.4785 42.3601 38.0917 44.52 40.8271 43.8398L70.5238 36.4557Z" fill="url(#paint5_linear_393_3070)"/>
<defs>
<linearGradient id="paint0_linear_393_3070" x1="57.3436" y1="61.5715" x2="16.7607" y2="92.9633" gradientUnits="userSpaceOnUse">
<stop stop-color="#74A551"/>
<stop offset="1" stop-color="#D2F2D2"/>
</linearGradient>
<linearGradient id="paint1_linear_393_3070" x1="48.5416" y1="67.9336" x2="85.3283" y2="66.3553" gradientUnits="userSpaceOnUse">
<stop stop-color="#FCFBF7"/>
<stop offset="1" stop-color="#FFDF78"/>
</linearGradient>
<linearGradient id="paint2_linear_393_3070" x1="19.1849" y1="58.618" x2="50.7319" y2="29.6401" gradientUnits="userSpaceOnUse">
<stop stop-color="#FF93AB"/>
<stop offset="1" stop-color="#F76453"/>
</linearGradient>
<linearGradient id="paint3_linear_393_3070" x1="44.6748" y1="51.8584" x2="46.7824" y2="68.5254" gradientUnits="userSpaceOnUse">
<stop stop-color="#FCFBF7"/>
<stop offset="1" stop-color="#FFDF78"/>
</linearGradient>
<linearGradient id="paint4_linear_393_3070" x1="69.9814" y1="16.3219" x2="51.3993" y2="35.4252" gradientUnits="userSpaceOnUse">
<stop stop-color="#E2C1FA"/>
<stop offset="1" stop-color="#917BFF"/>
</linearGradient>
<linearGradient id="paint5_linear_393_3070" x1="47.3338" y1="36.5032" x2="86.5837" y2="32.3633" gradientUnits="userSpaceOnUse">
<stop stop-color="#FCFBF7"/>
<stop offset="1" stop-color="#FFDF78"/>
</linearGradient>
</defs>
</svg>
