<svg width="65" height="65" viewBox="0 0 65 65" fill="none" xmlns="http://www.w3.org/2000/svg">
<path fill-rule="evenodd" clip-rule="evenodd" d="M18.518 25.1128C18.5282 25.1128 18.5383 25.1129 18.5485 25.1129C18.5587 25.1129 18.5689 25.1128 18.5791 25.1128H27.0929C27.0952 25.1128 27.0971 25.1105 27.0971 25.1077C27.0971 25.105 27.0989 25.1027 27.1012 25.1026C30.3988 24.8989 33.02 21.6446 33.02 17.6599C33.02 13.5439 30.2231 10.2071 26.773 10.2071C26.3963 10.2071 26.0405 9.97845 25.8438 9.59524C24.3413 6.66849 21.6361 4.71573 18.5485 4.71573C14.2916 4.71573 10.7615 8.42776 10.1082 13.2866C10.0868 13.446 9.96953 13.5628 9.83422 13.5628C7.16073 13.5628 4.99343 16.1484 4.99343 19.3379C4.99343 22.5274 7.16073 25.113 9.83422 25.113C9.88923 25.113 9.94402 25.1119 9.99859 25.1097C9.99932 25.1097 9.99993 25.1104 9.99993 25.1112C9.99993 25.1121 10.0005 25.1128 10.0012 25.1128H18.518Z" fill="url(#paint0_linear_2_581)"/>
<path d="M55.8101 26.54L45.3101 22.44C44.3101 22.05 43.4701 21.32 42.9501 20.38L36.7401 9.24C35.1201 6.34 30.9501 6.34 29.3301 9.24L23.1201 20.38C22.6001 21.32 21.7601 22.05 20.7601 22.44L10.2601 26.54C6.96008 27.83 6.60008 32.36 9.66008 34.15L15.1101 37.34C16.8901 38.38 17.7701 40.48 17.2601 42.47L14.9301 51.64C13.9701 55.42 18.1901 58.38 21.4101 56.19L30.4301 50.09C32.0001 49.03 34.0501 49.03 35.6101 50.09L44.6301 56.19C47.8601 58.37 52.0701 55.41 51.1101 51.64L48.7801 42.47C48.2701 40.47 49.1501 38.38 50.9301 37.34L56.3801 34.15C59.4401 32.36 59.0801 27.83 55.7801 26.54H55.8101Z" fill="url(#paint1_linear_2_581)"/>
<path d="M28.4297 34.8491C30.502 36.7583 34.1019 37.2492 37.2109 34.8491" stroke="#2E2A42" stroke-width="2" stroke-linecap="round"/>
<path d="M22.169 30.8851C22.169 32.3838 23.0276 33.5987 24.0867 33.5987C25.1458 33.5987 26.0044 32.3838 26.0044 30.8851C26.0044 29.3864 25.1458 28.1714 24.0867 28.1714C23.0276 28.1714 22.169 29.3864 22.169 30.8851Z" fill="#2E2A42"/>
<path d="M39.1236 30.8851C39.1236 32.3838 39.9822 33.5987 41.0413 33.5987C42.1004 33.5987 42.959 32.3838 42.959 30.8851C42.959 29.3864 42.1004 28.1714 41.0413 28.1714C39.9822 28.1714 39.1236 29.3864 39.1236 30.8851Z" fill="#2E2A42"/>
<path d="M49.3067 29.3338C49.3067 33.4002 48.0755 40.3937 51.9638 40.3937C54.2015 40.3937 54.9206 37.9883 54.7069 35.7977" stroke="#2E2A42" stroke-linecap="round"/>
<path fill-rule="evenodd" clip-rule="evenodd" d="M46.0885 58.9446C46.0987 58.9446 46.1089 58.9446 46.1191 58.9446C46.1293 58.9446 46.1395 58.9446 46.1496 58.9446H54.6634C54.6658 58.9446 54.6677 58.9426 54.6677 58.9403C54.6677 58.938 54.6695 58.9361 54.6718 58.936C57.9693 58.7653 60.5906 56.0375 60.5906 52.6975C60.5906 49.2474 57.7937 46.4505 54.3435 46.4505C53.9669 46.4505 53.6111 46.2588 53.4144 45.9376C51.9119 43.4844 49.2066 41.8475 46.1191 41.8475C41.8622 41.8475 38.332 44.959 37.6788 49.0317C37.6573 49.1653 37.5401 49.2632 37.4048 49.2632C34.7313 49.2632 32.564 51.4305 32.564 54.104C32.564 56.7774 34.7313 58.9447 37.4048 58.9447C37.4598 58.9447 37.5146 58.9438 37.5691 58.942C37.5699 58.9419 37.5705 58.9425 37.5705 58.9433C37.5705 58.944 37.5711 58.9446 37.5718 58.9446H46.0885Z" fill="url(#paint2_linear_2_581)"/>
<path d="M46.5468 29.5465C46.5468 28.9942 46.9945 28.5465 47.5468 28.5465H48.6685C49.4127 28.5465 50.0302 29.1482 50.0302 29.9082C50.0302 30.6524 49.4285 31.27 48.6685 31.27H47.5468C46.9945 31.27 46.5468 30.8223 46.5468 30.27V29.5465Z" fill="#FDB154"/>
<path d="M46.5468 29.5465C46.5468 28.9942 46.9945 28.5465 47.5468 28.5465H48.6685C49.4127 28.5465 50.0302 29.1482 50.0302 29.9082C50.0302 30.6524 49.4285 31.27 48.6685 31.27H47.5468C46.9945 31.27 46.5468 30.8223 46.5468 30.27V29.5465Z" fill="url(#paint3_linear_2_581)"/>
<path d="M46.5468 29.5465C46.5468 28.9942 46.9945 28.5465 47.5468 28.5465H48.6685C49.4127 28.5465 50.0302 29.1482 50.0302 29.9082C50.0302 30.6524 49.4285 31.27 48.6685 31.27H47.5468C46.9945 31.27 46.5468 30.8223 46.5468 30.27V29.5465Z" fill="url(#paint4_linear_2_581)"/>
<circle opacity="0.55" cx="41.0703" cy="30.62" r="5.50703" fill="url(#paint5_linear_2_581)"/>
<path fill-rule="evenodd" clip-rule="evenodd" d="M41.0468 25.4071C38.1677 25.4071 35.8338 27.741 35.8338 30.62C35.8338 33.499 38.1677 35.8329 41.0468 35.8329C43.9258 35.8329 46.2597 33.499 46.2597 30.62C46.2597 27.741 43.9258 25.4071 41.0468 25.4071ZM33.517 30.62C33.517 26.4614 36.8882 23.0902 41.0468 23.0902C45.2053 23.0902 48.5765 26.4614 48.5765 30.62C48.5765 34.7786 45.2053 38.1498 41.0468 38.1498C36.8882 38.1498 33.517 34.7786 33.517 30.62Z" fill="#FDB154"/>
<path fill-rule="evenodd" clip-rule="evenodd" d="M41.0468 25.4071C38.1677 25.4071 35.8338 27.741 35.8338 30.62C35.8338 33.499 38.1677 35.8329 41.0468 35.8329C43.9258 35.8329 46.2597 33.499 46.2597 30.62C46.2597 27.741 43.9258 25.4071 41.0468 25.4071ZM33.517 30.62C33.517 26.4614 36.8882 23.0902 41.0468 23.0902C45.2053 23.0902 48.5765 26.4614 48.5765 30.62C48.5765 34.7786 45.2053 38.1498 41.0468 38.1498C36.8882 38.1498 33.517 34.7786 33.517 30.62Z" fill="url(#paint6_linear_2_581)"/>
<path fill-rule="evenodd" clip-rule="evenodd" d="M41.0468 25.4071C38.1677 25.4071 35.8338 27.741 35.8338 30.62C35.8338 33.499 38.1677 35.8329 41.0468 35.8329C43.9258 35.8329 46.2597 33.499 46.2597 30.62C46.2597 27.741 43.9258 25.4071 41.0468 25.4071ZM33.517 30.62C33.517 26.4614 36.8882 23.0902 41.0468 23.0902C45.2053 23.0902 48.5765 26.4614 48.5765 30.62C48.5765 34.7786 45.2053 38.1498 41.0468 38.1498C36.8882 38.1498 33.517 34.7786 33.517 30.62Z" fill="url(#paint7_linear_2_581)"/>
<defs>
<linearGradient id="paint0_linear_2_581" x1="25.3992" y1="29.6537" x2="8.27327" y2="15.8051" gradientUnits="userSpaceOnUse">
<stop stop-color="#AFDDFF"/>
<stop offset="1" stop-color="#FCFBF7"/>
</linearGradient>
<linearGradient id="paint1_linear_2_581" x1="44.2074" y1="27.6528" x2="24.2584" y2="50.2691" gradientUnits="userSpaceOnUse">
<stop stop-color="#FFDF78"/>
<stop offset="0.945335" stop-color="#FDB154"/>
</linearGradient>
<linearGradient id="paint2_linear_2_581" x1="52.9698" y1="62.7508" x2="38.299" y2="48.5977" gradientUnits="userSpaceOnUse">
<stop stop-color="#AFDDFF"/>
<stop offset="1" stop-color="#FCFBF7"/>
</linearGradient>
<linearGradient id="paint3_linear_2_581" x1="48.8361" y1="28.8543" x2="48.4973" y2="31.299" gradientUnits="userSpaceOnUse">
<stop stop-color="#FDB154"/>
<stop offset="1" stop-color="#FF93AB"/>
</linearGradient>
<linearGradient id="paint4_linear_2_581" x1="48.8361" y1="28.8543" x2="48.4973" y2="31.299" gradientUnits="userSpaceOnUse">
<stop stop-color="#E2C1FA"/>
<stop offset="1" stop-color="#917BFF"/>
</linearGradient>
<linearGradient id="paint5_linear_2_581" x1="38.5581" y1="38.579" x2="46.8258" y2="33.7134" gradientUnits="userSpaceOnUse">
<stop stop-color="#917BFF"/>
<stop offset="1" stop-color="#FCFBF7"/>
</linearGradient>
<linearGradient id="paint6_linear_2_581" x1="43.4139" y1="24.792" x2="41.0468" y2="38.1498" gradientUnits="userSpaceOnUse">
<stop stop-color="#FDB154"/>
<stop offset="1" stop-color="#FF93AB"/>
</linearGradient>
<linearGradient id="paint7_linear_2_581" x1="43.4139" y1="24.792" x2="41.0468" y2="38.1498" gradientUnits="userSpaceOnUse">
<stop stop-color="#E2C1FA"/>
<stop offset="1" stop-color="#917BFF"/>
</linearGradient>
</defs>
</svg>
