<svg width="66" height="57" viewBox="0 0 66 57" fill="none" xmlns="http://www.w3.org/2000/svg">
<path fill-rule="evenodd" clip-rule="evenodd" d="M22.4348 26.8522C21.0646 27.9161 20.8163 29.8893 21.8802 31.2594L26.0527 36.6331C26.4103 37.0936 26.8706 37.4274 27.3762 37.6273C27.5569 37.7359 27.7514 37.8279 27.9583 37.9004L34.3784 40.1516C36.0154 40.7256 37.8078 39.8639 38.3818 38.2269C38.9558 36.5899 38.0941 34.7975 36.4571 34.2235L30.5181 32.1411L26.8421 27.4067C25.7782 26.0366 23.805 25.7883 22.4348 26.8522Z" fill="#927CFF"/>
<path fill-rule="evenodd" clip-rule="evenodd" d="M17.0108 36.648C15.3786 36.0603 13.5791 36.907 12.9915 38.5392L9.21563 49.0261C8.90054 49.9013 8.34759 50.6712 7.61895 51.2493L3.65665 54.3929C2.91455 54.9817 3.33088 56.1763 4.27819 56.1763H10.1656C10.4419 56.1763 10.7175 56.2084 10.9937 56.2174C12.3184 56.2606 13.5775 55.4556 14.0507 54.1413L18.902 40.6673C19.4897 39.0351 18.6429 37.2356 17.0108 36.648Z" fill="url(#paint0_linear_41_20482)"/>
<path fill-rule="evenodd" clip-rule="evenodd" d="M17.0696 34.8409C15.8001 36.0231 15.7293 38.0106 16.9116 39.2801L25.6967 48.7137V53.0961C25.6967 54.8308 27.103 56.2371 28.8377 56.2371C28.9825 56.2371 29.125 56.2273 29.2645 56.2083C29.2725 56.2072 29.2789 56.215 29.2762 56.2226C29.2737 56.2296 29.2789 56.237 29.2863 56.237H35.8929C36.8402 56.237 37.2565 55.0424 36.5144 54.4536L32.3572 51.1553C32.1181 50.9656 31.9787 50.6771 31.9787 50.3719V47.3788C31.9787 46.317 31.4518 45.3782 30.6452 44.8097L21.5088 34.9989C20.3266 33.7294 18.3391 33.6587 17.0696 34.8409Z" fill="url(#paint1_linear_41_20482)"/>
<path d="M9.9071 30.9588C9.40016 28.479 11.2949 26.1577 13.8261 26.1577H24.782C27.3132 26.1577 29.2079 28.479 28.701 30.9588L26.846 40.0333C26.7508 40.4987 26.3413 40.833 25.8662 40.833H12.7419C12.2668 40.833 11.8573 40.4987 11.7621 40.0333L9.9071 30.9588Z" fill="url(#paint2_linear_41_20482)"/>
<path d="M13.5243 47.0736C12.8116 49.1326 11.2856 50.4734 10.1159 50.0686C8.94625 49.6637 8.57578 47.6663 9.28849 45.6074C10.0012 43.5485 11.5272 42.2076 12.6969 42.6125C13.8666 43.0174 14.237 45.0147 13.5243 47.0736Z" fill="#927CFF"/>
<path d="M27.7723 46.8588C28.485 48.9177 30.0109 50.2586 31.1806 49.8537C32.3503 49.4488 32.7208 47.4515 32.0081 45.3926C31.2954 43.3336 29.7694 41.9927 28.5997 42.3976C27.43 42.8025 27.0595 44.7999 27.7723 46.8588Z" fill="#927CFF"/>
<path d="M10.9491 39.227C10.9491 38.6747 11.3968 38.227 11.9491 38.227H26.9403C27.4926 38.227 27.9403 38.6747 27.9403 39.227V40.4633C27.9403 41.0156 27.4926 41.4633 26.9403 41.4633H11.9491C11.3968 41.4633 10.9491 41.0156 10.9491 40.4633V39.227Z" fill="url(#paint3_linear_41_20482)"/>
<path opacity="0.3" fill-rule="evenodd" clip-rule="evenodd" d="M19.2813 25.9531C19.6621 25.5531 20.2951 25.5374 20.6951 25.9182L21.1743 26.3742C23.0535 28.1628 23.7894 30.8441 23.0864 33.3415L22.1673 36.6068C22.0176 37.1384 21.4653 37.4481 20.9337 37.2984C20.4021 37.1488 20.0924 36.5965 20.2421 36.0649L21.1613 32.7995C21.6634 31.0157 21.1377 29.1005 19.7954 27.8229L19.3163 27.3669C18.9162 26.9862 18.9006 26.3532 19.2813 25.9531Z" fill="#927CFF"/>
<path fill-rule="evenodd" clip-rule="evenodd" d="M13.2708 26.9975C12.1066 25.7114 10.1203 25.6125 8.83424 26.7767L3.79034 31.3423C3.35808 31.7336 3.05994 32.2178 2.8988 32.737C2.80406 32.9254 2.727 33.1263 2.67026 33.338L0.909411 39.9096C0.460433 41.5852 1.45481 43.3075 3.13042 43.7565C4.80603 44.2055 6.52835 43.2111 6.97733 41.5355L8.6062 35.4564L13.05 31.434C14.3361 30.2698 14.4349 28.2835 13.2708 26.9975Z" fill="url(#paint4_linear_41_20482)"/>
<path d="M11.7066 9.12203C15.9825 8.15302 17.7148 11.1419 18.261 13.042C17.9997 13.8972 19.5205 15.9941 16.7841 17.7044C13.4985 19.7579 8.91487 22.3981 4.13968 19.6727C3.91186 19.5426 3.96879 19.2007 4.21505 19.1104C9.08772 17.3229 6.58019 10.2838 11.7066 9.12203Z" fill="url(#paint5_linear_41_20482)"/>
<path d="M21.1571 14.3076C21.1571 16.4741 19.4008 18.2304 17.2342 18.2304C15.0677 18.2304 13.3114 16.4741 13.3114 14.3076C13.3114 12.1411 15.0677 10.3847 17.2342 10.3847C19.4008 10.3847 21.1571 12.1411 21.1571 14.3076Z" fill="#927CFF"/>
<path d="M27.0545 19.563C27.0545 23.8434 23.5845 27.3134 19.304 27.3134C15.0236 27.3134 11.5536 23.8434 11.5536 19.563C11.5536 15.2825 15.0236 11.8125 19.304 11.8125C23.5845 11.8125 27.0545 15.2825 27.0545 19.563Z" fill="url(#paint6_linear_41_20482)"/>
<path d="M23.0604 15.0915L15.3442 18.4476C14.9791 18.6064 14.743 18.9666 14.743 19.3646V21.4968C14.743 21.9656 15.0687 22.3715 15.5263 22.4731L23.2794 24.1938C23.4764 24.2375 23.682 24.2206 23.8692 24.1453L26.9433 22.9088C27.3221 22.7565 27.5702 22.3893 27.5702 21.9811V18.2474C27.5702 17.9257 27.4154 17.6237 27.1543 17.4357L24.0434 15.1969C23.7572 14.9909 23.3837 14.9509 23.0604 15.0915Z" fill="url(#paint7_linear_41_20482)"/>
<path fill-rule="evenodd" clip-rule="evenodd" d="M22.6293 17.9731C23.1816 17.9732 23.6292 18.421 23.6291 18.9733L23.6288 21.3659C23.6287 21.9182 23.1809 22.3658 22.6286 22.3657C22.0763 22.3656 21.6287 21.9179 21.6288 21.3656L21.6291 18.973C21.6292 18.4207 22.077 17.973 22.6293 17.9731Z" fill="#2E2A42"/>
<path fill-rule="evenodd" clip-rule="evenodd" d="M19.5149 18.5009C20.0671 18.501 20.5148 18.9488 20.5147 19.5011L20.5145 20.838C20.5144 21.3903 20.0666 21.838 19.5143 21.8379C18.9621 21.8378 18.5144 21.39 18.5145 20.8377L18.5147 19.5008C18.5148 18.9485 18.9626 18.5009 19.5149 18.5009Z" fill="#2E2A42"/>
<path fill-rule="evenodd" clip-rule="evenodd" d="M25.4271 17.9731C25.9794 17.9732 26.4271 18.421 26.427 18.9733L26.4266 21.3659C26.4265 21.9182 25.9787 22.3658 25.4265 22.3657C24.8742 22.3656 24.4265 21.9179 24.4266 21.3656L24.427 18.973C24.4271 18.4207 24.8748 17.973 25.4271 17.9731Z" fill="#2E2A42"/>
<path d="M26.1093 24.2097C26.0503 23.5895 26.3651 23.0149 26.88 22.8158C32.9434 20.4715 36.9056 20.2205 43.6573 21.5374C44.2132 21.6459 44.6453 22.1693 44.7053 22.8002L45.4117 30.2264C45.8474 34.8069 44.3463 39.2658 41.362 42.2553L38.2258 45.397C37.8272 45.7964 37.2326 45.8422 36.7643 45.5096L33.0804 42.8933C29.575 40.4037 27.2536 36.2393 26.8179 31.6588L26.1093 24.2097Z" fill="url(#paint8_linear_41_20482)"/>
<path d="M29.1245 25.7799C29.0799 25.3117 29.3049 24.8788 29.6753 24.7299C34.0364 22.9768 36.8904 22.7978 41.7595 23.8097C42.1604 23.893 42.4735 24.2892 42.5188 24.7655L43.0521 30.3721C43.381 33.8303 42.314 37.1916 40.1736 39.4399L37.9242 41.8028C37.6383 42.1031 37.21 42.1361 36.8715 41.8839L34.2086 39.8995C31.6747 38.0112 29.9884 34.862 29.6594 31.4039L29.1245 25.7799Z" fill="url(#paint9_linear_41_20482)"/>
<path d="M15.5814 28.0056C15.5814 30.5641 13.5073 32.6382 10.9488 32.6382C8.39033 32.6382 6.31625 30.5641 6.31625 28.0056C6.31625 25.4471 8.39033 23.373 10.9488 23.373C13.5073 23.373 15.5814 25.4471 15.5814 28.0056Z" fill="#927CFF"/>
<path fill-rule="evenodd" clip-rule="evenodd" d="M31.8417 19.3691C32.3877 19.2621 32.7435 18.7328 32.6365 18.1868C32.5296 17.6409 32.0002 17.285 31.4543 17.392C30.9083 17.499 30.5524 18.0283 30.6594 18.5743C30.7664 19.1203 31.2957 19.4761 31.8417 19.3691ZM54.9556 14.8888C55.0625 15.4348 54.7067 15.9641 54.1607 16.0711C53.6147 16.1781 53.0854 15.8222 52.9784 15.2762C52.8714 14.7303 53.2273 14.2009 53.7733 14.094C54.3192 13.987 54.8486 14.3428 54.9556 14.8888ZM50.6347 18.9356C50.3749 19.5383 50.7864 20.207 51.4377 20.2873C51.865 20.34 52.276 20.3947 52.6797 20.4523L52.6811 20.4525L52.6811 20.4525C53.8402 20.5854 54.9992 20.7183 56.1472 20.8229C56.8228 20.8845 57.4013 21.1144 57.6558 21.7646C57.9102 22.4147 57.6696 22.9652 57.2153 23.469C56.4645 24.288 55.7285 25.1453 54.9994 25.9946L54.9993 25.9946C54.6423 26.4106 54.2868 26.8246 53.9321 27.2313L53.932 27.2314C53.7541 27.4468 53.5762 27.6622 53.3737 27.9339C53.3353 27.9853 53.353 28.0587 53.4102 28.0877L53.4102 28.0877C54.0603 28.4166 54.6778 28.729 55.3107 29.0061C55.9397 29.2815 56.3365 29.713 56.2974 30.4454C56.2583 31.1778 55.8334 31.5071 55.212 31.7503C53.9639 32.2171 52.7256 32.7089 51.479 33.204L51.4788 33.204C50.8524 33.4528 50.2238 33.7025 49.5909 33.9502C35.6844 39.204 29.5162 23.5867 43.5186 18.2679L49.1398 16.0681C49.7612 15.8249 50.2623 15.8569 50.7378 16.3228C51.2526 16.8058 51.3105 17.3699 51.0638 17.988C50.9197 18.2923 50.7781 18.6029 50.6347 18.9356ZM62.459 20.0308C62.6051 20.7761 62.1193 21.4987 61.3739 21.6448C60.6286 21.7908 59.906 21.305 59.7599 20.5597C59.6139 19.8144 60.0997 19.0917 60.845 18.9457C61.5904 18.7996 62.313 19.2854 62.459 20.0308ZM37.6848 38.8959C38.4302 38.7498 38.916 38.0272 38.7699 37.2818C38.6239 36.5365 37.9013 36.0507 37.1559 36.1967C36.4106 36.3428 35.9248 37.0654 36.0708 37.8108C36.2169 38.5561 36.9395 39.0419 37.6848 38.8959Z" fill="url(#paint10_linear_41_20482)"/>
<path d="M47.3746 22.5547C47.1172 23.0982 47.4941 23.7105 48.0896 23.7935C48.1255 23.7985 48.1612 23.8035 48.1968 23.8086C48.7868 23.8763 49.3768 23.9439 49.9612 23.9972C50.3049 24.0285 50.5993 24.1455 50.7288 24.4763C50.8583 24.8072 50.7358 25.0873 50.5047 25.3436C49.9355 25.9644 49.3832 26.6284 48.834 27.258C48.6609 27.4677 48.7329 27.7782 48.9767 27.8987C49.1635 27.991 49.3482 28.0791 49.5355 28.1611C49.8556 28.3012 50.0575 28.5208 50.0376 28.8934C50.0177 29.2661 49.8015 29.4337 49.4853 29.5574C48.5311 29.9143 47.5881 30.2999 46.6251 30.6768C39.549 33.3501 36.4104 25.4035 43.5353 22.6971C44.484 22.3259 45.4326 21.9546 46.3956 21.5778C46.7118 21.454 46.9668 21.4703 47.2087 21.7074C47.4706 21.9532 47.5001 22.2402 47.3746 22.5547Z" fill="url(#paint11_linear_41_20482)"/>
<path d="M47.3746 22.5547C47.1172 23.0982 47.4941 23.7105 48.0896 23.7935C48.1255 23.7985 48.1612 23.8035 48.1968 23.8086C48.7868 23.8763 49.3768 23.9439 49.9612 23.9972C50.3049 24.0285 50.5993 24.1455 50.7288 24.4763C50.8583 24.8072 50.7358 25.0873 50.5047 25.3436C49.9355 25.9644 49.3832 26.6284 48.834 27.258C48.6609 27.4677 48.7329 27.7782 48.9767 27.8987C49.1635 27.991 49.3482 28.0791 49.5355 28.1611C49.8556 28.3012 50.0575 28.5208 50.0376 28.8934C50.0177 29.2661 49.8015 29.4337 49.4853 29.5574C48.5311 29.9143 47.5881 30.2999 46.6251 30.6768C39.549 33.3501 36.4104 25.4035 43.5353 22.6971C44.484 22.3259 45.4326 21.9546 46.3956 21.5778C46.7118 21.454 46.9668 21.4703 47.2087 21.7074C47.4706 21.9532 47.5001 22.2402 47.3746 22.5547Z" fill="url(#paint12_linear_41_20482)"/>
<path d="M43.4712 1.28961C43.3951 0.536886 42.2983 0.536887 42.2223 1.28961L42.1571 1.93495C41.9978 3.51268 40.808 4.79162 39.2459 5.06437C38.6879 5.16179 38.6879 5.96265 39.2459 6.06007C40.808 6.33282 41.9978 7.61176 42.1571 9.18949L42.2223 9.83483C42.2983 10.5876 43.3951 10.5876 43.4712 9.83483L43.5363 9.18949C43.6957 7.61176 44.8855 6.33282 46.4476 6.06007C47.0055 5.96265 47.0055 5.16179 46.4476 5.06437C44.8855 4.79162 43.6957 3.51268 43.5363 1.93495L43.4712 1.28961Z" fill="url(#paint13_linear_41_20482)"/>
<path d="M37.7153 9.29137C37.6688 8.83084 36.9978 8.83084 36.9512 9.29137L36.9114 9.68619C36.8139 10.6515 36.086 11.4339 35.1302 11.6008C34.7889 11.6604 34.7889 12.1504 35.1302 12.21C36.086 12.3769 36.8139 13.1593 36.9114 14.1246L36.9512 14.5194C36.9978 14.98 37.6688 14.98 37.7153 14.5194L37.7552 14.1246C37.8527 13.1593 38.5806 12.3769 39.5363 12.21C39.8777 12.1504 39.8777 11.6604 39.5363 11.6008C38.5806 11.4339 37.8527 10.6515 37.7552 9.68619L37.7153 9.29137Z" fill="url(#paint14_linear_41_20482)"/>
<defs>
<linearGradient id="paint0_linear_41_20482" x1="19.0886" y1="41.2676" x2="24.0042" y2="48.9772" gradientUnits="userSpaceOnUse">
<stop stop-color="#AFDDFF"/>
<stop offset="1" stop-color="#917BFF"/>
</linearGradient>
<linearGradient id="paint1_linear_41_20482" x1="14.6278" y1="40.1171" x2="35.8302" y2="31.37" gradientUnits="userSpaceOnUse">
<stop stop-color="#AFDDFF"/>
<stop offset="1" stop-color="#917BFF"/>
</linearGradient>
<linearGradient id="paint2_linear_41_20482" x1="1.51758" y1="27.7695" x2="22.5481" y2="63.2623" gradientUnits="userSpaceOnUse">
<stop stop-color="#AFDDFF"/>
<stop offset="1" stop-color="#917BFF"/>
</linearGradient>
<linearGradient id="paint3_linear_41_20482" x1="38.1699" y1="40.2103" x2="31.9688" y2="30.984" gradientUnits="userSpaceOnUse">
<stop stop-color="#AFDDFF"/>
<stop offset="1" stop-color="#917BFF"/>
</linearGradient>
<linearGradient id="paint4_linear_41_20482" x1="0.945658" y1="31.1121" x2="16.0251" y2="46.0894" gradientUnits="userSpaceOnUse">
<stop stop-color="#AFDDFF"/>
<stop offset="1" stop-color="#917BFF"/>
</linearGradient>
<linearGradient id="paint5_linear_41_20482" x1="10.7112" y1="9.73016" x2="15.5348" y2="18.6398" gradientUnits="userSpaceOnUse">
<stop stop-color="#FF93AB"/>
<stop offset="1" stop-color="#F76453"/>
</linearGradient>
<linearGradient id="paint6_linear_41_20482" x1="6.02131" y1="13.5149" x2="30.9573" y2="43.2687" gradientUnits="userSpaceOnUse">
<stop stop-color="#AFDDFF"/>
<stop offset="1" stop-color="#917BFF"/>
</linearGradient>
<linearGradient id="paint7_linear_41_20482" x1="35.2928" y1="20.623" x2="22.2067" y2="15.5603" gradientUnits="userSpaceOnUse">
<stop stop-color="#AFDDFF"/>
<stop offset="1" stop-color="#917BFF"/>
</linearGradient>
<linearGradient id="paint8_linear_41_20482" x1="34.9467" y1="22.4893" x2="48.2129" y2="34.7835" gradientUnits="userSpaceOnUse">
<stop stop-color="#FF93AB"/>
<stop offset="1" stop-color="#F76453"/>
</linearGradient>
<linearGradient id="paint9_linear_41_20482" x1="24.3474" y1="26.1768" x2="62.0188" y2="54.4862" gradientUnits="userSpaceOnUse">
<stop offset="0.218605" stop-color="#AFDDFF"/>
<stop offset="1" stop-color="#917BFF"/>
</linearGradient>
<linearGradient id="paint10_linear_41_20482" x1="57.0025" y1="30.3794" x2="49.9487" y2="39.2621" gradientUnits="userSpaceOnUse">
<stop stop-color="#FFE079"/>
<stop offset="1" stop-color="#FDB154"/>
</linearGradient>
<linearGradient id="paint11_linear_41_20482" x1="44.878" y1="23.8311" x2="47.3029" y2="28.2458" gradientUnits="userSpaceOnUse">
<stop stop-color="#FFE079"/>
<stop offset="1" stop-color="#FDB154"/>
</linearGradient>
<linearGradient id="paint12_linear_41_20482" x1="48.1711" y1="20.8822" x2="48.6743" y2="32.2015" gradientUnits="userSpaceOnUse">
<stop stop-color="#FF93AB"/>
<stop offset="1" stop-color="#F76453"/>
</linearGradient>
<linearGradient id="paint13_linear_41_20482" x1="38.6985" y1="11.0471" x2="48.3841" y2="3.56437" gradientUnits="userSpaceOnUse">
<stop offset="0.400572" stop-color="#FF93AB"/>
<stop offset="1" stop-color="#FDB154"/>
</linearGradient>
<linearGradient id="paint14_linear_41_20482" x1="38.6985" y1="11.0471" x2="48.3841" y2="3.56437" gradientUnits="userSpaceOnUse">
<stop offset="0.400572" stop-color="#FF93AB"/>
<stop offset="1" stop-color="#FDB154"/>
</linearGradient>
</defs>
</svg>
