<svg width="137" height="137" viewBox="0 0 137 137" fill="none" xmlns="http://www.w3.org/2000/svg">
<path d="M91.1956 15.5549L91.0853 15.5977L91.0413 15.4879C86.1705 3.32375 70.0031 0.907589 61.7888 11.1162L61.7147 11.2083L61.6217 11.1352C51.3214 3.03617 36.1119 9.02743 34.1024 21.9755L34.0843 22.0923L33.9672 22.0755C20.9974 20.2117 10.8212 33.005 15.555 45.2231L15.5977 45.3334L15.4879 45.3773C3.3238 50.2481 0.90764 66.4155 11.1162 74.6298L11.2084 74.704L11.1353 74.797C3.03622 85.0972 9.02748 100.307 21.9755 102.316L22.0924 102.334L22.0756 102.451C20.2117 115.421 33.0051 125.597 45.2231 120.864L45.3334 120.821L45.3774 120.931C50.2482 133.095 66.4156 135.511 74.6299 125.302L74.704 125.21L74.797 125.283C85.0973 133.382 100.307 127.391 102.316 114.443L102.334 114.326L102.452 114.343C115.421 116.207 125.597 103.414 120.864 91.1955L120.821 91.0852L120.931 91.0413C133.095 86.1705 135.511 70.0031 125.303 61.7888L125.21 61.7146L125.283 61.6216C133.383 51.3214 127.391 36.1119 114.443 34.1024L114.326 34.0842L114.343 33.9672C116.207 20.9974 103.414 10.8212 91.1956 15.5549Z" fill="url(#paint0_linear_249_9356)" stroke="white" stroke-width="8"/>
<path d="M42.6856 59.6047C52.187 69.7394 77.0359 75.2521 94.7709 72.9528C83.0359 98.2012 45.265 85.9812 42.6856 59.6047Z" fill="#2E2A42"/>
<path fill-rule="evenodd" clip-rule="evenodd" d="M44.8406 47.9383C45.651 47.9475 46.3005 48.6118 46.2913 49.4222C46.2556 52.5915 44.9336 55.5422 43.1976 57.9774C43.3761 58.1866 43.5623 58.3947 43.7561 58.6015C48.2171 63.3598 56.4728 67.1835 65.99 69.5167C75.4259 71.83 85.8455 72.6149 94.4863 71.5103L94.5744 71.4867C94.6922 71.4549 94.8641 71.4083 95.079 71.3492C95.5091 71.231 96.1102 71.0631 96.7938 70.8649C98.1698 70.466 99.8464 69.9539 101.133 69.4807C101.894 69.2011 102.737 69.591 103.017 70.3516C103.296 71.1123 102.907 71.9556 102.146 72.2353C100.758 72.7454 99.0007 73.2808 97.6109 73.6837C96.9116 73.8864 96.2971 74.058 95.8571 74.179C95.8391 74.1839 95.8215 74.1887 95.8041 74.1935C89.4496 87.101 76.4679 90.3433 64.8933 87.0499C53.3473 83.7645 42.8692 73.9113 41.285 60.306C38.9396 62.8076 36.1917 64.6547 34.1872 65.2449C33.4098 65.4737 32.594 65.0291 32.3651 64.2516C32.1363 63.4742 32.5809 62.6584 33.3584 62.4296C34.9547 61.9596 37.8772 59.9898 40.1947 57.0859C42.0359 54.7787 43.3263 52.0885 43.3567 49.3891C43.3659 48.5787 44.0302 47.9292 44.8406 47.9383ZM44.8516 63.4956C47.5064 73.9166 56.1306 81.5052 65.6965 84.2271C75.6493 87.0591 86.3252 84.5661 92.1933 74.7013C83.7335 75.4049 74.0799 74.5217 65.2913 72.3671C57.4031 70.4333 50.0401 67.433 44.8516 63.4956Z" fill="#2E2A42"/>
<path fill-rule="evenodd" clip-rule="evenodd" d="M71.3422 56.5189C67.4634 50.6955 60.0291 49.8892 55.0716 54.0715C54.4522 54.5941 53.5264 54.5156 53.0039 53.8962C52.4813 53.2767 52.5598 52.3509 53.1792 51.8284C59.4532 46.5355 68.9182 47.5857 73.7848 54.892C74.234 55.5665 74.0514 56.4775 73.3769 56.9267C72.7025 57.376 71.7915 57.1934 71.3422 56.5189Z" fill="#2E2A42"/>
<path fill-rule="evenodd" clip-rule="evenodd" d="M98.522 60.5804C94.6431 54.757 87.2088 53.9508 82.2514 58.133C81.632 58.6556 80.7062 58.5771 80.1836 57.9577C79.661 57.3382 79.7396 56.4125 80.359 55.8899C86.6329 50.597 96.098 51.6472 100.965 58.9535C101.414 59.628 101.231 60.539 100.557 60.9883C99.8822 61.4375 98.9712 61.2549 98.522 60.5804Z" fill="#2E2A42"/>
<defs>
<linearGradient id="paint0_linear_249_9356" x1="93.7285" y1="25.068" x2="59.341" y2="127.55" gradientUnits="userSpaceOnUse">
<stop stop-color="#D2F2D2"/>
<stop offset="1" stop-color="#FFDF78"/>
</linearGradient>
</defs>
</svg>
