<svg width="200" height="203" viewBox="0 0 200 203" fill="none" xmlns="http://www.w3.org/2000/svg">
<path d="M161.897 69.4385C178.69 58.605 185.72 48.527 192.853 20.0558" stroke="#2E2A42" stroke-width="8.40696" stroke-linecap="round"/>
<path d="M59.3082 77.6195C40.2834 83.7376 30.8842 91.6526 16.6253 117.307" stroke="#2E2A42" stroke-width="8.40696" stroke-linecap="round"/>
<path d="M28.0057 127.519C25.2586 124.667 24.095 123.272 22.6486 118.775C21.8127 116.177 22.4693 113.345 24.2034 111.237L16.4736 110.345C13.017 115.112 7.54016 118.09 4.80991 123.307C1.70208 129.245 0.824376 135.495 7.04725 140.379C12.5177 144.673 12.2324 131.382 16.9878 127.346C17.2783 127.099 17.7044 127.165 17.9679 127.44C21.3032 130.924 25.5037 131.639 28.0472 129.377C28.5962 128.888 28.5154 128.048 28.0057 127.519Z" fill="#2E2A42"/>
<path d="M63.4803 177.288L86.9459 104.761" stroke="#2E2A42" stroke-width="8.40696" stroke-linecap="round"/>
<path d="M77.3325 196.296L61.2495 179.867C60.3304 178.928 60.3939 177.415 61.3107 176.474C69.1942 168.383 65.1514 163.704 78.241 181.682C81.3261 185.919 82.7982 190.184 83.4292 193.824C84.0633 197.482 79.9296 198.949 77.3325 196.296Z" fill="#2E2A42"/>
<path d="M105.964 155.715C142.091 155.715 152.016 123.161 114.41 96.0587" stroke="#2E2A42" stroke-width="8.40696" stroke-linecap="round"/>
<path d="M110.825 179.607L103.15 157.935C102.712 156.696 103.403 155.346 104.65 154.931C115.294 151.39 114.326 149.138 117.8 166.733C118.815 171.875 118.355 176.363 117.396 179.931C116.431 183.516 112.064 183.107 110.825 179.607Z" fill="#2E2A42"/>
<path d="M189.254 20.1696L196.21 21.0706C199.342 11.6292 197.26 3.43554 189.18 2.37038C179.08 1.03892 176.551 12.0743 179.154 17.0384C180.518 19.6392 183.69 19.2068 186.529 18.0236C187.916 17.4455 189.648 18.7197 189.254 20.1696Z" fill="#2E2A42"/>
<path d="M91.8521 7.06773C97.238 -2.14106 110.547 -2.14107 115.933 7.06773L118.118 10.8026L121.877 8.66032C131.146 3.37824 142.672 10.0329 142.732 20.7009L142.756 25.0276L147.083 25.052C157.751 25.1119 164.406 36.6381 159.123 45.9069L156.981 49.6661L160.716 51.8505C169.925 57.2365 169.925 70.5458 160.716 75.9317L156.981 78.1162L159.123 81.8754C164.406 91.1441 157.751 102.67 147.083 102.73L142.756 102.755L142.732 107.081C142.672 117.749 131.146 124.404 121.877 119.122L118.118 116.98L115.933 120.715C110.547 129.923 97.238 129.923 91.8521 120.715L89.6676 116.98L85.9084 119.122C76.6397 124.404 65.1135 117.749 65.0535 107.081L65.0292 102.755L60.7024 102.73C50.0344 102.67 43.3798 91.1441 48.6618 81.8754L50.8042 78.1162L47.0693 75.9317C37.8605 70.5458 37.8605 57.2365 47.0693 51.8505L50.8042 49.6661L48.6618 45.9069C43.3798 36.6381 50.0344 25.1119 60.7024 25.052L65.0292 25.0276L65.0535 20.7009C65.1135 10.0329 76.6397 3.37824 85.9084 8.66032L89.6676 10.8026L91.8521 7.06773Z" fill="url(#paint0_linear_249_9364)"/>
<path d="M76.1074 50.3418C76.5682 53.6828 75.463 57.1008 73.7758 60.0123M66.6719 67.4031C68.6781 66.4717 71.6772 63.6338 73.7758 60.0123M73.7758 60.0123C87.4816 71.7977 118.761 83.9474 141.121 62.3623" stroke="#2E2A42" stroke-width="3.82134" stroke-linecap="round"/>
<ellipse cx="96.0956" cy="48.6003" rx="3.96315" ry="7.73755" fill="#2E2A42"/>
<ellipse cx="120.629" cy="48.6003" rx="3.96315" ry="7.73755" fill="#2E2A42"/>
<defs>
<linearGradient id="paint0_linear_249_9364" x1="123.928" y1="14.5648" x2="103.893" y2="127.621" gradientUnits="userSpaceOnUse">
<stop stop-color="#917BFF"/>
<stop offset="1" stop-color="#AFDDFF"/>
</linearGradient>
</defs>
</svg>
