<svg width="28" height="28" viewBox="0 0 28 28" fill="none" xmlns="http://www.w3.org/2000/svg">
<g clip-path="url(#clip0_63_4712)">
<path d="M7.06985 19.0082C11.8827 19.0082 15.7845 15.0934 15.7845 10.2644C15.7845 7.52743 14.5312 5.08419 12.5688 3.48091C12.3048 3.26524 12.4156 2.82131 12.7558 2.8091C12.8863 2.80442 13.0174 2.80206 13.149 2.80206C19.12 2.80206 23.9604 7.65859 23.9604 13.6495C23.9604 19.6403 19.12 24.4969 13.149 24.4969C9.13846 24.4969 5.63801 22.306 3.77175 19.0519C3.60187 18.7557 3.91918 18.4264 4.24136 18.5373C5.12829 18.8425 6.07968 19.0082 7.06985 19.0082Z" fill="#2E2A42"/>
<path d="M6.16715 4.80853C6.22047 4.27887 6.98969 4.27887 7.04301 4.80853L7.08872 5.26263C7.20048 6.37281 8.03489 7.27274 9.13044 7.46465C9.52172 7.53322 9.52172 8.09673 9.13044 8.16527C8.03489 8.35722 7.20048 9.25713 7.08872 10.3673L7.04301 10.8214C6.98969 11.3511 6.22047 11.3511 6.16715 10.8214L6.12144 10.3673C6.00968 9.25713 5.17527 8.35722 4.07972 8.16527C3.68843 8.09673 3.68843 7.53322 4.07972 7.46465C5.17527 7.27274 6.00968 6.37281 6.12144 5.26263L6.16715 4.80853Z" fill="#2E2A42"/>
<path d="M10.2036 10.4391C10.2362 10.115 10.7068 10.115 10.7395 10.4391L10.7674 10.7169C10.8358 11.3961 11.3463 11.9467 12.0166 12.0641C12.256 12.106 12.256 12.4508 12.0166 12.4928C11.3463 12.6102 10.8358 13.1608 10.7674 13.84L10.7395 14.1178C10.7068 14.4419 10.2362 14.4419 10.2036 14.1178L10.1757 13.84C10.1073 13.1608 9.59678 12.6102 8.9265 12.4928C8.6871 12.4508 8.6871 12.106 8.9265 12.0641C9.59678 11.9467 10.1073 11.3961 10.1757 10.7169L10.2036 10.4391Z" fill="#2E2A42"/>
<mask id="mask0_63_4712" style="mask-type:alpha" maskUnits="userSpaceOnUse" x="3" y="2" width="21" height="23">
<path d="M7.06985 19.0081C11.8827 19.0081 15.7845 15.0934 15.7845 10.2644C15.7845 7.52742 14.5312 5.08416 12.5688 3.48088C12.3048 3.26521 12.4156 2.82128 12.7558 2.80907C12.8863 2.80439 13.0174 2.80203 13.149 2.80203C19.1199 2.80203 23.9604 7.65858 23.9604 13.6494C23.9604 19.6403 19.1199 24.4968 13.149 24.4968C9.13848 24.4968 5.63801 22.3059 3.77175 19.0519C3.60187 18.7557 3.91917 18.4264 4.24136 18.5373C5.12829 18.8425 6.07968 19.0081 7.06985 19.0081Z" fill="#FC4C73"/>
</mask>
<g mask="url(#mask0_63_4712)">
<path fill-rule="evenodd" clip-rule="evenodd" d="M16.6848 12.5853C16.288 12.4448 15.8816 12.47 15.6317 12.6329C15.4629 12.7428 15.2373 12.6948 15.1277 12.5254C15.0181 12.3562 15.066 12.1297 15.2347 12.0198C15.7336 11.6947 16.394 11.707 16.9274 11.8959C17.4595 12.0844 17.9848 12.4929 18.124 13.1001C18.1692 13.2968 18.0468 13.493 17.8507 13.5383C17.6546 13.5835 17.4591 13.4607 17.4139 13.264C17.351 12.9897 17.0828 12.7263 16.6848 12.5853Z" fill="#FFEAA7"/>
<path fill-rule="evenodd" clip-rule="evenodd" d="M20.5517 13.9728C20.155 13.8323 19.7485 13.8576 19.4986 14.0204C19.3299 14.1304 19.1042 14.0823 18.9946 13.913C18.885 13.7437 18.933 13.5173 19.1017 13.4073C19.6006 13.0822 20.2609 13.0945 20.7943 13.2834C21.3265 13.472 21.8517 13.8804 21.991 14.4876C22.0361 14.6843 21.9137 14.8805 21.7176 14.9258C21.5216 14.9711 21.326 14.8483 21.2809 14.6515C21.218 14.3772 20.9497 14.1138 20.5517 13.9728Z" fill="#FFEAA7"/>
<path fill-rule="evenodd" clip-rule="evenodd" d="M14.176 14.5182C14.3434 14.4062 14.5696 14.4517 14.6812 14.6197C15.1197 15.2798 15.915 15.8922 16.8594 16.2747C17.6991 16.6148 18.624 16.7599 19.4762 16.6171C19.4464 16.2121 19.5451 15.7981 19.747 15.434C19.8448 15.2575 20.0666 15.194 20.2425 15.2921C20.4183 15.3903 20.4816 15.6128 20.3838 15.7892C20.199 16.1227 20.1541 16.491 20.2458 16.8001C20.3343 17.0986 20.5588 17.3734 20.9837 17.5265C21.1731 17.5947 21.2715 17.804 21.2035 17.994C21.1356 18.184 20.9269 18.2827 20.7375 18.2145C20.2346 18.0334 19.8791 17.7144 19.6751 17.3242C18.6396 17.5171 17.5455 17.341 16.5866 16.9526C15.5395 16.5285 14.6125 15.8346 14.0749 15.0251C13.9633 14.8571 14.0086 14.6302 14.176 14.5182Z" fill="#FFEAA7"/>
</g>
<path d="M21.3445 8.61573C21.0114 8.85501 20.3557 8.50844 19.88 7.8417C19.4043 7.17492 19.2887 6.44047 19.6218 6.20121C19.9549 5.96195 20.6106 6.30851 21.0863 6.97527C21.562 7.64201 21.6776 8.37648 21.3445 8.61573Z" fill="#FFECAF"/>
<path d="M16.6604 22.1023C16.4442 21.7532 16.8316 21.1193 17.5258 20.6865C18.2199 20.2537 18.9579 20.1859 19.1741 20.5351C19.3904 20.8842 19.0029 21.518 18.3088 21.9508C17.6146 22.3836 16.8766 22.4514 16.6604 22.1023Z" fill="#FFEAA7"/>
</g>
<defs>
<clipPath id="clip0_63_4712">
<rect width="20.4021" height="21.9323" fill="white" transform="translate(3.57031 2.8053)"/>
</clipPath>
</defs>
</svg>
